/* XPM */
static char *result[] = {
/* columns rows colors chars-per-pixel */
"16 16 68 1 ",
"  c black",
". c #030100",
"X c #020202",
"o c #050402",
"O c #040404",
"+ c #0B0600",
"@ c #0E0700",
"# c gray3",
"$ c #090909",
"% c gray4",
"& c #0B0B0B",
"* c gray5",
"= c #0F0E0C",
"- c #160B00",
"; c #140F0A",
": c #1B130A",
"> c #171512",
", c #1D1B19",
"< c #1E1E1E",
"1 c #2F1700",
"2 c #342A1F",
"3 c #222222",
"4 c #242321",
"5 c gray18",
"6 c #442200",
"7 c #5D340C",
"8 c #6A3500",
"9 c #62390F",
"0 c #7C3E00",
"q c #904800",
"w c #A45200",
"e c #AE5700",
"r c #A5590D",
"t c #AD5D0D",
"y c #B65D05",
"u c #BA630D",
"i c #CB6603",
"p c #D56A00",
"a c #D36C07",
"s c #DB7209",
"d c #D9720B",
"f c #E47200",
"g c #EA7705",
"h c #E87706",
"j c #EA7706",
"k c #EA7A0B",
"l c #F07903",
"z c #F67B01",
"x c #F77C02",
"c c #F87C00",
"v c #FA7C00",
"b c #FA7D01",
"n c #FB7E01",
"m c #FC7D00",
"M c #FC7E01",
"N c #FF7F00",
"B c #FE7F02",
"V c #FF8001",
"C c #FF840A",
"Z c #FFA751",
"A c #FFBB78",
"S c #AAAAAA",
"D c #B4B4B4",
"F c #BDBCBB",
"G c #D4C4B5",
"H c #F0D4B8",
"J c #CCCAC8",
"K c None",
/* pixels */
"KKKKKDJGGJDKKKKK",
"KKKSHZCvmCZHSKKK",
"KKFAVNNqwNNVAFKK",
"KSANNNp+-fNNNASK",
"KHVNNN1  6NNNVHK",
"DZNNNc.  @NNNNZD",
"JCNNNN8  0NNNNCJ",
"GNNNgiaeyzxxNNNG",
"GNNN7#O&X*o>sNNG",
"JCNN:% & &$XtNCJ",
"DZNn$% % %% rNZD",
"KHVN;% % %% uVHK",
"KSAN92,43<5=jASK",
"KKFABNbMlhkdAFKK",
"KKKSHZCNNCZHSKKK",
"KKKKKDJGGJDKKKKK"
};
