/* XPM */
static char *_94f2032440d4f6df319fc361d8ebac8VgILuCevBJkxMgGw[] = {
/* columns rows colors chars-per-pixel */
"64 64 126 2 ",
"   c None",
".  c #000000",
"X  c #0C0600",
"o  c #0F0800",
"O  c #0B0B0B",
"+  c #130A00",
"@  c #1B0E00",
"#  c #1E1000",
"$  c #131313",
"%  c #1B1B1B",
"&  c #271502",
"*  c #2B1600",
"=  c #341B00",
"-  c #3B1E00",
";  c #3A2106",
":  c #3D2D1C",
">  c #252525",
",  c #282726",
"<  c #2D2A27",
"1  c #2B2B2B",
"2  c #352F29",
"3  c #36322E",
"4  c #3B332A",
"5  c #343434",
"6  c #3B3631",
"7  c #393939",
"8  c #452400",
"9  c #4F2800",
"0  c #542B00",
"q  c #5A2D00",
"w  c #5F3000",
"e  c #693500",
"r  c #733A00",
"t  c #793E02",
"y  c #683E14",
"u  c #42382D",
"i  c #493A2B",
"p  c #523E29",
"a  c #403A34",
"s  c #483E34",
"d  c #5B442C",
"f  c #564431",
"g  c #684624",
"h  c #614529",
"j  c #7F5225",
"k  c #775028",
"l  c #78542F",
"z  c #424242",
"x  c #4D4D4D",
"c  c #51504F",
"v  c #555555",
"b  c #5D5751",
"n  c #655544",
"m  c #685847",
"M  c #62574C",
"N  c #636363",
"B  c #6B6B6B",
"V  c #824100",
"C  c #8C4600",
"Z  c #954B00",
"A  c #8E571F",
"S  c #97591A",
"D  c #9E5D1C",
"F  c #A55401",
"G  c #A95500",
"H  c #B45B00",
"J  c #BC5E00",
"K  c #A05C19",
"L  c #BD6207",
"P  c #A96016",
"I  c #AD6319",
"U  c #B36415",
"Y  c #B96611",
"T  c #855423",
"R  c #8B5621",
"E  c #8C5823",
"W  c #82582C",
"Q  c #8D5D2C",
"!  c #905E2D",
"~  c #845B31",
"^  c #B4712D",
"/  c #B87028",
"(  c #B07233",
")  c #CB6600",
"_  c #CF6800",
"`  c #CD6D0D",
"'  c #D46B02",
"]  c #DB6E00",
"[  c #D16E0B",
"{  c #D5700B",
"}  c #DD7309",
"|  c #CB6E11",
" . c #E47403",
".. c #EB7600",
"X. c #ED7904",
"o. c #E07409",
"O. c #F27A02",
"+. c #FF7F00",
"@. c #FF8002",
"#. c #FF8915",
"$. c #FF962F",
"%. c #FF9833",
"&. c #FFA144",
"*. c #FFA750",
"=. c #FFB064",
"-. c #FFB66F",
";. c #FFB872",
":. c #FFBC7A",
">. c #878787",
",. c #A5A5A5",
"<. c #AFAFAF",
"1. c gray74",
"2. c #FFC58C",
"3. c #FFD2A7",
"4. c #FFD7B0",
"5. c #FFDBB9",
"6. c #C4C4C4",
"7. c gray86",
"8. c #FFE4CA",
"9. c #FFE7D1",
"0. c #FFEBD7",
"q. c gray91",
"w. c #FFF5EC",
"e. c #FFF7F0",
"r. c #FFF9F4",
"t. c #FFFFFF",
/* pixels */
"                                                    . O 1 z x v v x z 1 O .                                                     ",
"                                            . 5 B ,.7.t.t.t.t.t.t.t.t.t.t.7.,.B 5 .                                             ",
"                                        1 >.7.t.t.t.t.t.t.t.t.t.t.t.t.t.t.t.t.t.t.7.>.1                                         ",
"                                  . x 1.t.t.t.t.t.t.r.8.3.2.:.;.;.:.2.3.8.r.t.t.t.t.t.t.1.x .                                   ",
"                                z 6.t.t.t.t.t.5.-.$.+.+.+.+.+.+.+.+.+.+.+.@.$.-.5.t.t.t.t.t.6.z                                 ",
"                            % ,.t.t.t.t.0.-.#.+.+.+.+.+.+.+.+.+.+.+.+.+.+.+.+.+.+.#.-.0.t.t.t.t.,.%                             ",
"                          x q.t.t.t.9.*.+.+.+.+.+.+.+.+.+.+.+.+.+.+.+.+.+.+.+.+.+.+.+.@.*.9.t.t.t.q.x                           ",
"                      . >.t.t.t.w.=.+.+.+.+.+.+.+.+.+.+.+.+.+.G _ +.+.+.+.+.+.+.+.+.+.+.+.@.=.w.t.t.t.>..                       ",
"                    O <.t.t.t.4.#.@.+.+.+.+.+.+.+.+.+.+.+.+.+.* q @.@.+.+.+.+.+.+.+.+.+.+.+.+.#.4.t.t.t.<.O                     ",
"                  $ 1.t.t.t.-.+.+.+.+.+.+.+.+.+.+.+.+.+.+.+.Z . . ] +.+.+.+.+.+.+.+.+.+.+.+.+.+.+.-.t.t.t.6.$                   ",
"                O 6.t.t.e.&.+.+.+.+.+.+.+.+.+.+.+.+.+.+.+. .+ . . 0 +.+.+.+.+.+.+.+.+.+.+.+.+.+.+.+.&.e.t.t.1.O                 ",
"              . <.t.t.w.%.+.+.+.+.+.+.+.+.+.+.+.+.+.+.+.+.0 . . . . H +.+.+.+.+.+.+.+.+.+.+.+.+.+.+.+.%.w.t.t.<..               ",
"              >.t.t.e.%.+.+.+.+.+.+.+.+.+.+.+.+.+.+.+.+.F . . . . . @ O.+.+.+.+.+.+.+.+.+.+.+.+.+.+.+.+.$.e.t.t.>.              ",
"            x t.t.t.&.+.+.+.+.+.+.+.+.+.+.+.+.+.+.+.@.] o . . . . . . 0 +.+.+.+.+.+.+.+.+.+.+.+.+.+.+.+.+.&.t.t.t.v             ",
"          % q.t.t.-.+.+.+.+.+.+.+.+.+.+.+.+.+.+.+.+.O.= . . . . . . . . Z +.+.+.+.+.+.+.+.+.+.+.+.+.+.+.+.+.-.t.t.q.%           ",
"          ,.t.t.4.+.+.+.+.+.+.+.+.+.+.+.+.+.+.+.+.+.q . . . . . . . . . . J +.+.+.+.+.+.+.+.+.+.+.+.+.+.+.+.+.4.t.t.,.          ",
"        z t.t.w.#.@.+.+.+.+.+.+.+.+.+.+.+.+.+.+.+.Z . . . . . . . . . . . +  .+.+.+.+.+.@.+.+.+.+.+.+.+.+.+.+.#.w.t.t.z         ",
"      . 6.t.t.=.+.+.+.+.+.+.+.+.+.+.+.+.+.+.+.+.] X . . . . . . . . . . . . 8 +.+.+.+.+.+.+.+.+.+.+.+.+.+.+.+.+.=.t.t.6..       ",
"      x t.t.9.@.+.+.+.+.@.+.+.+.+.+.+.+.+.+.+.+.w . . . . . . . . . . . . . . H +.+.+.+.+.+.+.+.+.+.+.+.+.+.+.+.@.9.t.t.x       ",
"      1.t.t.*.+.+.+.+.+.+.+.+.+.+.+.+.+.+.+.+.+.X . . . . . . . . . . . . . . 0 +.+.+.+.+.+.+.+.+.+.+.+.+.+.+.+.+.*.t.t.1.      ",
"    1 t.t.0.@.+.+.+.+.+.+.+.+.+.+.+.+.+.+.+.+.' . . . . . . . . . . . . . . . @ +.+.+.+.+.+.+.+.+.+.+.+.+.+.+.+.+.@.0.t.t.1     ",
"    >.t.t.-.+.+.+.+.+.+.+.+.+.+.+.+.+.+.+.+.+._ . . . . . . . . . . . . . . . @ +.+.+.+.+.+.+.+.+.+.+.+.+.+.+.+.+.+.-.t.t.>.    ",
"  . 7.t.t.#.+.+.+.+.+.+.+.+.+.+.+.+.+.+.+.+.+.... . . . . . . . . . . . . . . - +.+.+.+.+.+.+.+.+.+.+.+.+.+.+.+.+.+.#.r.t.7..   ",
"  5 t.t.5.+.+.+.+.+.+.+.+.+.+.+.+.+.+.+.+.+.+.+.* . . . . . . . . . . . . . . r +.+.+.+.+.+.+.+.+.+.+.+.+.+.+.+.+.+.@.5.t.t.5   ",
"  B t.t.-.+.+.+.+.+.+.+.+.+.+.+.+.+.+.+.+.+.+.+.Z . . . . . . . . . . . . . . ' +.+.+.+.+.+.+.+.+.+.+.+.+.+.+.+.+.@.+.-.t.t.B   ",
"  ,.t.t.$.+.+.+.+.+.+.+.+.+.+.+.+.+.+.+.+.+.+.+.O.* . . . . . . . . . . . . e +.+.+.+.+.+.+.+.+.+.+.+.+.+.+.+.+.+.+.+.$.t.t.,.  ",
". 7.t.r.@.+.+.+.+.+.+.+.+.+.+.+.+.+.+.+.+.+.+.+.+.] + . . . . . . . . . . - O.+.+.+.+.+.+.+.+.+.+.+.+.+.+.+.+.+.+.+.+.@.r.t.7.. ",
"O t.t.8.+.+.+.+.+.+.+.+.+.+.+.+.+.+.+.+.+.+.+.+.+.+.] * . . . . . . . . q O.+.+.+.+.+.+.+.+.+.+.+.+.+.+.+.+.+.+.+.+.+.+.8.t.t.O ",
"1 t.t.3.+.+.+.+.+.+.@.+.+.+.+.+.+.+.+.+.+.+.+.+.+.+.+.+.Z - . . . X 9 J +.+.+.+.+.+.+.+.+.+.+.+.+.+.+.+.+.+.+.+.+.+.+.+.3.t.t.1 ",
"z t.t.2.+.+.+.+.+.+.+.+.+.+.+.+.+.+.+.@.+.+.+.+.+.+.+.+.+.+.O.] ] +.+.+.+.+.+.+.+.+.+.+.+.+.+.+.+.+.+.+.+.+.@.+.+.+.+.+.2.t.t.z ",
"x t.t.:.+.+.+.+.+.+.+.+.+.+.+.+.+.+.+.{ [ +.+.+.+.X.O.+.+.+.+.+.@.+.+.+.+.+.+.+.@.@.+.+.+.+.+.+.+.+.+.+.+.+.+.+.+.+.+.+.:.t.t.x ",
"v t.t.;.+.+.+.+.+.+.+.+.+.+.+.+.+.+.I 1 % ; 8 9 y 6 : t V C Z F T g L ) ' ] ..[ S  .+.+.+.O.P } +.+.+.+.+.+.+.+.+.+.+.+.;.t.t.v ",
"v t.t.;.+.+.+.+.+.+.+.+.+.+.+.+.@.o.3 . . . . O 1 . . . . . . > $ . . . . . O 1 $ O + @ & u > a o.+.+.+.+.+.+.+.+.+.+.+.-.t.t.v ",
"x t.t.:.+.+.+.+.+.+.+.+.+.+.+.+.@.E O . . . . 1 O . . . . . O > . . . . . . 1 O . . . . $ % . % R +.+.+.+.+.+.+.+.+.+.+.:.t.t.x ",
"z t.t.2.+.+.+.+.+.+.+.+.+.+.+.+.+.4 . . . . . 1 . . . . . . , O . . . . . $ > . . . . . 1 . . . s +.+.+.+.+.+.+.+.+.+.+.2.t.t.z ",
"1 t.t.3.+.+.+.+.+.+.+.+.+.+.@.+.| % . . . . $ % . . . . . . 1 . . . . . . 1 . . . . . O , . . . 1 } +.+.+.+.+.+.+.+.+.+.3.t.t.1 ",
"O t.t.8.+.+.+.+.+.+.+.+.+.+.+.+.D O . . . . , . . . . . . $ % . . . . . . 1 . . . . . $ $ . . . , Y +.+.+.+.+.+.+.+.+.+.8.t.t.O ",
". 7.t.e.@.+.+.+.+.+.+.+.+.+.+.+.k . . . . . 1 . . . . . . % O . . . . . O > . . . . . , . . . . % K +.+.+.+.+.+.+.+.+.@.r.t.7.. ",
"  ,.t.t.$.+.+.+.+.+.+.+.+.+.+.@.f . . . . . 1 . . . . . . , . . . . . . $ $ . . . . . 1 . . . . % A +.+.+.+.+.+.+.+.+.$.t.t.,.  ",
"  B t.t.-.+.+.+.+.+.+.+.+.+.+.@.2 . . . . . > . . . . . . 1 . . . . . . > O . . . . . 1 . . . . $ T +.+.+.+.+.+.+.+.+.-.t.t.B   ",
"  5 t.t.5.+.+.+.+.+.@.+.+.+.+.O., . . . . O > . . . . . . 1 . . . . . . , . . . . . . 1 . . . . $ j +.+.+.+.+.+.+.+.+.5.t.t.5   ",
"  . 7.t.t.#.+.+.+.+.+.+.+.+.+.X.> . . . . O % . . . . . . 1 . . . . . . , . . . . . . , . . . . O j +.+.+.+.+.+.+.+.#.t.t.7..   ",
"    >.t.t.-.+.+.+.+.+.+.+.+.+.X.> . . . . O % . . . . . . , . . . . . . , . . . . . O > . . . . $ T @.+.+.+.+.+.+.+.-.t.t.>.    ",
"    1 t.t.0.+.+.+.+.+.+.+.+.+.X.> . . . . O % . . . . . . , . . . . . . 1 . . . . . . > . . . . $ A +.+.+.+.+.+.+.@.0.t.t.1     ",
"      1.t.t.*.+.+.+.+.+.+.+.+.+., . . . . O % . . . . . . , . . . . . . , . . . . . O > . . . . % S +.+.+.+.+.+.+.*.t.t.1.      ",
"      x t.t.9.@.+.+.+.+.+.+.+.+.4 . . . . O > . . . . . . 1 . . . . . . , . . . . . . > . . . . > U +.+.+.+.+.+.@.9.t.t.x       ",
"      . 6.t.t.=.+.+.+.+.+.+.+.+.d . . . . . , . . . . . . 1 . . . . . . > . . . . . . , . . . . , ` +.+.+.+.+.@.=.t.t.6..       ",
"        z t.t.w.#.+.+.+.+.+.@.@.T . . . . . , . . . . . . > . . . . . . % O . . . . . 1 . . . . 5 O.+.+.+.+.+.#.w.t.t.z         ",
"          ,.t.t.4.+.+.+.+.+.+.+.U $ . . . . > . . . . . . % O . . . . . O % . . . . . , . . . . f +.+.+.+.+.+.4.t.t.,.          ",
"          % q.t.t.-.+.+.+.+.+.+.O.< . . O O $ % . . O O O O > . . O O . O 1 . . . O O , O . . $ T +.+.+.+.+.-.t.t.q.%           ",
"            c t.t.t.&.+.+.+.+.+.+.E O % 7 7 5 5 . > 7 5 5 5 7 . $ 7 7 7 7 7 O . 7 7 7 7 $ . . , ` +.+.+.@.&.t.t.t.x             ",
"              >.t.t.w.%.+.+.+.+.+.O.h 3 j Q ~ l , 7 n m b b v , , N N B B N 1 O N B N B 5 . O d +.+.+.+.$.w.t.t.>.              ",
"              . <.t.t.w.%.+.+.+.+.+.+.X.+.+.+.+.o.[ +.+.+.+.+.` A ` ' ' ` | I i ! / ^ ( ! , 6 { +.+.+.%.w.t.t.<..               ",
"                O 1.t.t.e.&.+.+.+.+.+.+.+.+.+.+.+.@.+.+.+.+.+.+.+.+.+.+.+.+.@.@.@.+.+.+.@. .O.@.+.+.&.e.t.t.6.O                 ",
"                  $ 6.t.t.t.-.+.+.+.+.+.+.+.+.+.+.+.+.+.+.+.+.+.+.+.+.+.+.+.+.+.+.+.+.+.+.+.+.@.+.-.r.t.t.6.$                   ",
"                    O <.t.t.t.4.#.+.+.+.+.+.+.+.+.+.+.+.+.+.+.+.+.+.+.+.+.+.+.+.+.+.+.+.+.+.+.#.4.t.t.t.<.O                     ",
"                      . >.t.t.t.w.=.@.+.+.+.+.+.+.+.+.+.+.+.+.+.+.+.+.+.+.+.+.+.+.+.+.+.+.+.=.w.t.t.t.>..                       ",
"                          v q.t.t.t.9.*.@.+.+.+.+.@.+.+.+.+.+.+.+.+.+.+.+.+.+.+.+.+.+.+.*.9.t.t.t.q.v                           ",
"                            % ,.t.t.t.t.0.-.#.+.+.+.+.+.+.+.+.+.+.+.+.+.+.+.+.+.+.#.-.0.t.t.t.t.,.%                             ",
"                                z 6.t.t.t.t.t.5.-.$.@.+.+.+.+.+.+.+.+.+.+.+.$.-.5.t.t.t.t.t.6.z                                 ",
"                                  . x 1.t.t.t.t.t.t.r.8.3.2.:.;.;.:.2.3.8.r.t.t.t.t.t.t.1.x .                                   ",
"                                        1 >.7.t.t.t.t.t.t.t.t.t.t.t.t.t.t.t.t.t.t.7.>.1                                         ",
"                                            . 7 B ,.7.t.t.t.t.t.t.t.t.t.t.7.,.B 5 .                                             ",
"                                                    . . 1 z x v v x z 1 O .                                                     "
};
