/* XPM */
static char *result[] = {
/* columns rows colors chars-per-pixel */
"32 32 129 2 ",
"   c #000000",
".  c #080700",
"X  c #0D0B05",
"o  c #120E02",
"O  c #171204",
"+  c #1B1505",
"@  c #1E1A02",
"#  c #231B03",
"$  c #2A1E06",
"%  c #2B2104",
"&  c #2D2801",
"*  c #262009",
"=  c #29230A",
"-  c #2E2B0D",
";  c #342B02",
":  c #3B2C07",
">  c #31290B",
",  c #382D09",
"<  c #373101",
"1  c #3E3402",
"2  c #3E340D",
"3  c #412E08",
"4  c #423404",
"5  c #40350D",
"6  c #4C370A",
"7  c #44380E",
"8  c #4F4402",
"9  c #554604",
"0  c #57410C",
"q  c #5C440B",
"w  c #4F4513",
"e  c #534210",
"r  c #614A09",
"t  c #605401",
"y  c #6A5306",
"u  c #6E530A",
"i  c #73560B",
"p  c #765B0A",
"a  c #645213",
"s  c #705A17",
"d  c #715B18",
"f  c #7E610A",
"g  c #6D6319",
"h  c #77631A",
"j  c #796118",
"k  c #7A722C",
"l  c #816E02",
"z  c #836708",
"x  c #8D6B0B",
"c  c #926D0D",
"v  c #8B7007",
"b  c #977E03",
"n  c #9A730C",
"m  c #826B1C",
"M  c #9D7D1D",
"N  c #A67C0E",
"B  c #8A7320",
"V  c #837A2F",
"C  c #917A23",
"Z  c #997F24",
"A  c #A28703",
"S  c #BB8D0D",
"D  c #B29404",
"F  c #BD930A",
"G  c #92862A",
"H  c #968929",
"J  c #9D892A",
"K  c #8F8533",
"L  c #A38423",
"P  c #A98C20",
"I  c #A38D2C",
"U  c #AC922D",
"Y  c #A79A2A",
"T  c #A89B2B",
"R  c #B19228",
"E  c #BD9F2C",
"W  c #AF9931",
"Q  c #B59B31",
"!  c #B2A43E",
"~  c #C9960E",
"^  c #CD9C0B",
"/  c #D39E0E",
"(  c #C29115",
")  c #C99612",
"_  c #CE9A10",
"`  c #C3A005",
"'  c #CDA705",
"]  c #CEA10B",
"[  c #D7AD06",
"{  c #D4A30D",
"}  c #DAA50B",
"|  c #D6A90D",
" . c #DDAA0A",
".. c #DDB00B",
"X. c #E3AF07",
"o. c #E1AC08",
"O. c #E5B307",
"+. c #E9BC06",
"@. c #E3B509",
"#. c #C0A12C",
"$. c #C4AA35",
"%. c #CAAD32",
"&. c #C4AB38",
"*. c #C3B43B",
"=. c #CAB13A",
"-. c #C9BB3C",
";. c #D2B535",
":. c #D7BA37",
">. c #D7BD3C",
",. c #EDC505",
"<. c #F4D303",
"1. c #CDB742",
"2. c #D3BF43",
"3. c #D4C044",
"4. c #D8C242",
"5. c #DECC53",
"6. c #E4D14E",
"7. c #E9D64F",
"8. c #E0CE53",
"9. c #E5D356",
"0. c #EBD853",
"q. c #E9D758",
"w. c #E5D85E",
"e. c #EDDB5B",
"r. c #EBDE64",
"t. c #E9DF6B",
"y. c #F5EB70",
"u. c #FAF077",
"i. c None",
/* pixels */
"i.i.i.i.i.i.i.i.i.i.i.i.i.i.i.i.i.i.i.i.i.i.i.i.i.i.i.i.i.i.i.i.",
"i.i.i.i.i.i.i.i.i.i.i.i.,.+.O.o.O.O.O.@.@.i.i.i.i.i.i.i.i.i.i.i.",
"i.i.i.i.i.i.i.i.i.<.+.} ) n i r q u x S } o...i.i.i.i.i.i.i.i.i.",
"i.i.i.i.i.i.i.i.+.} c : .               # p ~  ...i.i.i.i.i.i.i.",
"i.i.i.i.i.i.<.o.N $                         o f }  .i.i.i.i.i.i.",
"i.i.i.i.i.<.} i .                               1 ^  .i.i.i.i.i.",
"i.i.i.i.<. .q                                     % ^ } i.i.i.i.",
"i.i.i.i.o.i                                         ; } | i.i.i.",
"i.i.i.+.N .                                           y  .i.i.i.",
"i.i.<.} %                                             . S } i.i.",
"i.i.+.c                                                 9  .i.i.",
"i.i.} :                                                 . ] { i.",
"i.,.~ .                     . 6 0 o .         3 e $       x } i.",
"i.+.n   d U U U U U I 0 B U U =.>.U W h j U U $.>.Q U C O 9 o.i.",
"i.O.p   ! u.r.w.r.t.u.3.y.u.u.u.u.u.u.t.r.u.u.u.u.u.u.y.w ; o.i.",
"i.o.r   H -.T g d Y *.G -.-.V k k k k V -.-.K k k k k k - @ O.i.",
"i.X.r   J 0.0.0.7.0.0.P 6.3.+         O 4.9.,             @ O._ ",
"i. .i   m :.R L L E :.M ;.%.j s s s s s E :.m s s s d d @ & O.i.",
"i. .x   I e.e.e.q.e.9.Z 1.e.e.e.e.e.e.5.&.q.e.e.e.e.e.e.5 9 o.i.",
"i. .F   > 5 5 5 5 2 2 X $ 5 7 =.8.a 2 5 = 2 7 U 8.m 2 5 + l } i.",
"i... .$                       $ $ o           # $ O       ` { i.",
"i.i. .p                                                 ; O.) i.",
"i.i. .] O                                               A } i.i.",
"i.i.i. .z                                             1 O.) i.i.",
"i.i.i.|  .4                                         O ' / i.i.i.",
"i.i.i.i.} { %                                     . D } i.i.i.i.",
"i.i.i.i.i.} ] ;                                 o D } ( i.i.i.i.",
"i.i.i.i.i.i.}  .y .                           1 ' } ( i.i.i.i.i.",
"i.i.i.i.i.i.i.{ o.F 9 .                   ; A O./ i.i.i.i.i.i.i.",
"i.i.i.i.i.i.i.i.i.{ X.[ A t < # @ & 8 l ` O.} ) i.i.i.i.i.i.i.i.",
"i.i.i.i.i.i.i.i.i.i.i./ {  .O.O.O.O.X.} / ) i.i.i.i.i.i.i.i.i.i.",
"i.i.i.i.i.i.i.i.i.i.i.i.i.i.i.i._ i.i.i.i.i.i.i.i.i.i.i.i.i.i.i."
};
