/* XPM */
static char *result[] = {
/* columns rows colors chars-per-pixel */
"16 16 101 2 ",
"   c black",
".  c #020200",
"X  c #090601",
"o  c #0A0701",
"O  c #0A0801",
"+  c #0B0801",
"@  c #0F0A02",
"#  c #0F0E00",
"$  c #110C02",
"%  c #131100",
"&  c #171103",
"*  c #161400",
"=  c #1B1601",
"-  c #1B1502",
";  c #1C1601",
":  c #241B03",
">  c #251D02",
",  c #322605",
"<  c #342D01",
"1  c #342805",
"2  c #352805",
"3  c #362905",
"4  c #342D09",
"5  c #382D0C",
"6  c #3E3401",
"7  c #3E3304",
"8  c #3E310C",
"9  c #3E340F",
"0  c #42350D",
"q  c #4A3C0E",
"w  c #523D06",
"e  c #473C12",
"r  c #493D12",
"t  c #4B3F13",
"y  c #4B4006",
"u  c #534006",
"i  c #5A4307",
"p  c #5B4407",
"a  c #4E4214",
"s  c #4F4314",
"d  c #564917",
"f  c #6C5B1B",
"g  c #776003",
"h  c #72601C",
"j  c #7C681E",
"k  c #726423",
"l  c #7F7128",
"z  c #806406",
"x  c #856904",
"c  c #9A7B05",
"v  c #947009",
"b  c #967308",
"n  c #A47E09",
"m  c #826C20",
"M  c #86772A",
"N  c #887A2D",
"B  c #AD8508",
"V  c #AC8409",
"C  c #B08709",
"Z  c #B18909",
"A  c #928332",
"S  c #968834",
"D  c #B9A234",
"F  c #B2A13D",
"G  c #C69B09",
"H  c #CA9D09",
"J  c #CF9B0F",
"K  c #D0A00B",
"L  c #D9A30B",
"P  c #D9A50B",
"I  c #D8A70B",
"U  c #D8A30C",
"Y  c #D8A80B",
"T  c #DCA90B",
"R  c #DDAA0A",
"E  c #DDAB0A",
"W  c #DEAB0A",
"Q  c #E1AE09",
"!  c #E4B307",
"~  c #E7B707",
"^  c #E6BA07",
"/  c #E8B806",
"(  c #C2A631",
")  c #CAB23C",
"_  c #CDB53D",
"`  c #D3BA3D",
"'  c #D4BC3D",
"]  c #BAA840",
"[  c #B9AC41",
"{  c #B9AD42",
"}  c #B7AE4F",
"|  c #B9B152",
" . c #BCB352",
".. c #BFB653",
"X. c #C3B647",
"o. c #C8B646",
"O. c #C9BB48",
"+. c #CFBC4A",
"@. c #DED153",
"#. c #E0D458",
"$. c None",
/* pixels */
"$.$.$.$.$.$.$./ ~ $.$.$.$.$.$.$.",
"$.$.$.$.^ n i 2 , w v Y $.$.$.$.",
"$.$.$.G 2             : C $.$.$.",
"$.$.G &                 O V $.$.",
"$.^ 2                     - K $.",
"$.n                         z $.",
"$.p e d d 9 a h j t r f m s 7 P ",
"! 3 X.[ { O.#. .| } @...| | 4 T ",
"Q 1 D ) _ ( ' 0 5 8 ` q 5 5 = E ",
"$.u l S S k N ] o.A M F +.S y L ",
"$.b           o @     X $   g $.",
"$.I >                     # H $.",
"$.$.Z +                 . c $.$.",
"$.$.$.B ;             # c J $.$.",
"$.$.$.$.K x 6 * % < g H $.$.$.$.",
"$.$.$.$.$.$.U R W L $.$.$.$.$.$."
};
