/* XPM */
static char *_7057d4df4974afde2e8484532c68826i9r8ejueLqMNNW6c[] = {
/* columns rows colors chars-per-pixel */
"32 32 142 2 ",
"   c None",
".  c black",
"X  c #010101",
"o  c #020202",
"O  c #050200",
"+  c #050300",
"@  c #040404",
"#  c #060606",
"$  c #070707",
"%  c #0B0600",
"&  c #0E0700",
"*  c #080807",
"=  c #090909",
"-  c gray4",
";  c #0B0B0B",
":  c #0C0C0C",
">  c gray5",
",  c #0E0E0E",
"<  c gray6",
"1  c #150A00",
"2  c #1B0E00",
"3  c #11100F",
"4  c #101010",
"5  c #111111",
"6  c gray7",
"7  c #131313",
"8  c gray8",
"9  c #151515",
"0  c #161616",
"q  c #181614",
"w  c #1B1B1B",
"e  c #1F1D1C",
"r  c #2A1500",
"t  c #2E1700",
"y  c #221B15",
"u  c #231E18",
"i  c #261F18",
"p  c #2F271F",
"a  c #392714",
"s  c #222120",
"d  c #2C2C2C",
"f  c #343434",
"g  c #412100",
"h  c #462300",
"j  c #592C00",
"k  c #492F15",
"l  c #48311A",
"z  c #4E341A",
"x  c #4F351B",
"c  c #603000",
"v  c #623100",
"b  c #6E3700",
"n  c #763B00",
"m  c #7B3D00",
"M  c #633E1A",
"N  c #67411B",
"B  c #7A4715",
"V  c #4E463E",
"C  c #594632",
"Z  c #5E4831",
"A  c #4A4642",
"S  c gray31",
"D  c #505050",
"F  c #535353",
"G  c DimGray",
"H  c #717171",
"J  c #8E4700",
"K  c #894A0A",
"L  c #904800",
"P  c #944A00",
"I  c #884F16",
"U  c #86501A",
"Y  c #94581B",
"T  c #A05000",
"R  c #A45200",
"E  c #AB5A08",
"W  c #B35A00",
"Q  c #A45B12",
"!  c #A75F16",
"~  c #AD6013",
"^  c #B76615",
"/  c #BA6612",
"(  c #BD6711",
")  c #C26100",
"_  c #C36100",
"`  c #CA6500",
"'  c #CE6701",
"]  c #D06800",
"[  c #D6700A",
"{  c #DA720A",
"}  c #DF7308",
"|  c #DC730A",
" . c #C06810",
".. c #D17314",
"X. c #D87818",
"o. c #E17102",
"O. c #E67607",
"+. c #E97400",
"@. c #EB7602",
"#. c #EC7600",
"$. c #ED7600",
"%. c #EE7803",
"&. c #EC7805",
"*. c #E17408",
"=. c #E07409",
"-. c #F37900",
";. c #F17A03",
":. c #F57A00",
">. c #F77B00",
",. c #F67C02",
"<. c #F27B04",
"1. c #F97D01",
"2. c #FA7D00",
"3. c #FB7E01",
"4. c #FD7E00",
"5. c #FE7E00",
"6. c #FE7F00",
"7. c #FF7F00",
"8. c #FF7F01",
"9. c #FF8206",
"0. c #FF9328",
"q. c #FFA349",
"w. c #FFAC5A",
"e. c #FFB872",
"r. c #8B8B8B",
"t. c gray58",
"y. c gray64",
"u. c #A9A9A9",
"i. c gray67",
"p. c #B1B1B1",
"a. c #FFC388",
"s. c #FFDCBA",
"d. c gray77",
"f. c #FFE5CC",
"g. c #FFE8D1",
"h. c #FFE9D4",
"j. c #FFF7EF",
"k. c #F6F6F6",
"l. c #F9F9F9",
"z. c #FFFDFA",
"x. c #FFFEFE",
"c. c white",
/* pixels */
"                        H t.y.i.u.y.t.H                         ",
"                  G p.k.x.j.f.s.s.f.j.x.k.p.G                   ",
"              F d.x.g.e.0.7.7.7.7.7.7.0.e.g.x.d.F               ",
"            r.l.h.q.7.7.9.7.7.+.-.7.7.7.7.7.q.h.l.r.            ",
"          i.x.a.9.7.7.7.7.7.7.b J 7.7.7.7.7.7.9.a.x.i.          ",
"        i.z.w.7.7.7.7.7.7.7.] O 1 #.7.7.7.7.7.7.7.w.z.i.        ",
"      r.x.w.7.7.7.7.7.7.7.:.t . . j 7.7.7.7.7.7.7.7.w.x.r.      ",
"    F l.a.7.7.7.7.7.7.7.7.v . . . . P 7.7.7.7.7.7.7.7.a.l.F     ",
"    d.h.9.7.7.7.7.7.7.7.T . . . . . O ` 7.7.7.7.7.7.7.9.h.d.    ",
"  G x.q.7.7.7.7.7.7.7.7.2 . . . . . . g 7.7.7.7.7.7.7.7.q.x.G   ",
"  p.g.9.7.7.7.7.7.7.7.+.. . . . . . . & 7.7.7.7.7.7.7.7.9.g.p.  ",
"  k.e.7.7.7.7.7.7.7.7.1.% . . . . . . r 7.7.7.7.7.7.7.7.7.e.k.  ",
"H x.0.7.7.7.7.7.7.7.7.7.b . . . . . . L 7.7.7.7.7.7.7.7.7.0.x.H ",
"t.j.7.7.7.7.7.7.7.7.7.7.:.h . . . . v 7.7.7.7.7.7.7.7.7.7.7.j.t.",
"y.f.7.7.7.7.7.7.7.7.7.7.7.7.W n m ) 7.7.7.7.7.7.7.7.7.7.7.7.f.y.",
"i.s.7.7.7.7.7.7.7.! K R Q E ) ' / o.#.%.} 7.1.=.7.7.7.7.7.7.s.i.",
"i.s.7.7.7.7.7.7.{ 7 . , < . . 0 # . . w = & p e { 7.7.7.7.7.s.i.",
"y.f.7.7.7.7.7.7.I . . 0 . . . 9 . . , = . . 4 . Y 7.7.7.7.7.f.y.",
"t.j.7.7.7.7.7.7.k . . 9 . . ; ; . . 9 . . , # . N 7.7.7.7.7.j.t.",
"H x.0.7.7.7.7.7.y . . 7 . . 9 . . . 9 . . 9 . . z 7.7.7.7.0.x.H ",
"  k.e.7.7.7.7.1.7 . # , . . 9 . . . 7 . . 9 . . l 7.7.7.7.e.k.  ",
"  p.g.7.7.7.7.,.7 . # , . . 7 . . . 9 . . 7 . . z 7.7.7.7.g.p.  ",
"  G x.q.7.7.7.7.q . # , . . 9 . . . 9 . . 7 . . M 7.7.7.q.x.G   ",
"    d.h.9.7.7.7.a . . 9 . . 7 . . . 7 . . 9 . . U 7.9.9.h.d.    ",
"    F l.a.7.7.7.B . # 9 . # ; ; . # 9 . # 9 . # ^ 7.7.a.l.F     ",
"      r.x.w.7.7.=.p Z C p V A d f S S 7 S S 7 u -.7.w.x.r.      ",
"        i.z.w.7.7.1.7.7.O.7.7.%.[ #.O.( ..X.!  .7.w.z.i.        ",
"          i.x.a.9.7.7.7.7.7.7.7.7.7.7.7.7.7.9.9.a.x.i.          ",
"            r.l.h.q.9.9.7.7.7.7.7.7.7.7.7.7.q.h.l.r.            ",
"              F d.x.f.e.0.7.7.7.7.7.7.0.e.g.x.d.F               ",
"                  G p.k.x.j.f.s.s.f.j.x.k.p.G                   ",
"                        H t.y.u.i.y.t.H                         "
};
