/* XPM */
static char *result[] = {
/* columns rows colors chars-per-pixel */
"32 32 142 2 ",
"   c black",
".  c #010101",
"X  c #020202",
"o  c #050200",
"O  c #050300",
"+  c #040404",
"@  c #060606",
"#  c #070707",
"$  c #0B0600",
"%  c #0E0700",
"&  c #080807",
"*  c #090909",
"=  c gray4",
"-  c #0B0B0B",
";  c #0C0C0C",
":  c gray5",
">  c #0E0E0E",
",  c gray6",
"<  c #150A00",
"1  c #1B0E00",
"2  c #11100F",
"3  c #101010",
"4  c #111111",
"5  c gray7",
"6  c #131313",
"7  c gray8",
"8  c #151515",
"9  c #161616",
"0  c #181614",
"q  c #1B1B1B",
"w  c #1F1D1C",
"e  c #2A1500",
"r  c #2E1700",
"t  c #221B15",
"y  c #231E18",
"u  c #261F18",
"i  c #2F271F",
"p  c #392714",
"a  c #222120",
"s  c #2C2C2C",
"d  c #343434",
"f  c #412100",
"g  c #462300",
"h  c #592C00",
"j  c #492F15",
"k  c #48311A",
"l  c #4E341A",
"z  c #4F351B",
"x  c #603000",
"c  c #623100",
"v  c #6E3700",
"b  c #763B00",
"n  c #7B3D00",
"m  c #633E1A",
"M  c #67411B",
"N  c #7A4715",
"B  c #4E463E",
"V  c #594632",
"C  c #5E4831",
"Z  c #4A4642",
"A  c gray31",
"S  c #505050",
"D  c #535353",
"F  c DimGray",
"G  c #717171",
"H  c #8E4700",
"J  c #894A0A",
"K  c #904800",
"L  c #944A00",
"P  c #884F16",
"I  c #86501A",
"U  c #94581B",
"Y  c #A05000",
"T  c #A45200",
"R  c #AB5A08",
"E  c #B35A00",
"W  c #A45B12",
"Q  c #A75F16",
"!  c #AD6013",
"~  c #B76615",
"^  c #BA6612",
"/  c #BD6711",
"(  c #C26100",
")  c #C36100",
"_  c #CA6500",
"`  c #CE6701",
"'  c #D06800",
"]  c #D6700A",
"[  c #DA720A",
"{  c #DF7308",
"}  c #DC730A",
"|  c #C06810",
" . c #D17314",
".. c #D87818",
"X. c #E17102",
"o. c #E67607",
"O. c #E97400",
"+. c #EB7602",
"@. c #EC7600",
"#. c #ED7600",
"$. c #EE7803",
"%. c #EC7805",
"&. c #E17408",
"*. c #E07409",
"=. c #F37900",
"-. c #F17A03",
";. c #F57A00",
":. c #F77B00",
">. c #F67C02",
",. c #F27B04",
"<. c #F97D01",
"1. c #FA7D00",
"2. c #FB7E01",
"3. c #FD7E00",
"4. c #FE7E00",
"5. c #FE7F00",
"6. c #FF7F00",
"7. c #FF7F01",
"8. c #FF8206",
"9. c #FF9328",
"0. c #FFA349",
"q. c #FFAC5A",
"w. c #FFB872",
"e. c #8B8B8B",
"r. c gray58",
"t. c gray64",
"y. c #A9A9A9",
"u. c gray67",
"i. c #B1B1B1",
"p. c #FFC388",
"a. c #FFDCBA",
"s. c gray77",
"d. c #FFE5CC",
"f. c #FFE8D1",
"g. c #FFE9D4",
"h. c #FFF7EF",
"j. c #F6F6F6",
"k. c #F9F9F9",
"l. c #FFFDFA",
"z. c #FFFEFE",
"x. c white",
"c. c None",
/* pixels */
"c.c.c.c.c.c.c.c.c.c.c.c.G r.t.y.y.t.r.G c.c.c.c.c.c.c.c.c.c.c.c.",
"c.c.c.c.c.c.c.c.c.F i.j.x.h.d.a.a.d.h.x.j.i.F c.c.c.c.c.c.c.c.c.",
"c.c.c.c.c.c.c.D s.x.f.w.9.7.6.6.6.6.7.9.w.f.x.s.D c.c.c.c.c.c.c.",
"c.c.c.c.c.c.e.k.g.0.6.6.6.6.6.O.=.6.6.6.6.6.0.g.k.e.c.c.c.c.c.c.",
"c.c.c.c.c.u.z.p.8.6.6.6.6.6.6.v H 6.6.6.6.6.6.8.p.z.u.c.c.c.c.c.",
"c.c.c.c.u.l.q.6.6.6.6.6.6.6.' o < #.6.6.6.6.6.6.6.q.l.u.c.c.c.c.",
"c.c.c.e.z.q.6.6.6.6.6.6.6.:.r     h 6.6.6.6.6.6.6.6.q.z.e.c.c.c.",
"c.c.D k.p.6.6.6.6.6.6.6.6.x         L 6.6.6.6.6.6.6.6.p.k.D c.c.",
"c.c.s.g.8.6.6.6.6.6.6.6.Y           O _ 6.6.6.6.6.6.6.8.g.s.c.c.",
"c.F x.0.6.6.6.6.6.6.6.5.1             f 6.6.6.6.6.6.6.6.0.x.F c.",
"c.i.f.6.6.6.6.6.6.6.6.O.              % 6.6.6.6.6.6.6.6.6.f.i.c.",
"c.j.w.6.6.6.6.6.6.6.6.1.$             e 6.6.6.6.6.6.6.6.6.w.j.c.",
"G x.9.6.6.6.6.6.6.6.6.6.v             K 6.6.6.6.6.6.6.6.6.9.x.G ",
"r.h.7.6.6.6.6.6.6.6.6.6.;.g         c 3.6.6.6.6.6.6.6.6.6.7.h.r.",
"t.d.6.6.6.6.6.6.6.6.6.6.6.4.E b n ( 6.6.6.6.6.6.6.6.6.6.6.6.d.t.",
"y.a.6.6.6.6.6.6.6.! J T W R ) ` ^ X.@.$.{ 6.2.&.6.6.6.6.6.6.a.y.",
"y.a.6.6.6.6.6.6.} 2   ; >     9 @     q & $ u w [ 6.6.6.6.6.a.y.",
"t.d.6.6.6.6.6.6.P     9     . 9     > *   X 7 . U 6.6.6.6.6.d.t.",
"r.h.7.6.6.6.6.6.j     8     - =     8     , @   M 6.6.6.6.7.h.r.",
"G x.9.6.6.6.6.6.t   . 6     7 .     8     8     z 6.6.6.6.9.x.G ",
"c.j.w.6.6.6.6.<.6   @ ,     7       7     7     k 6.6.6.6.w.j.c.",
"c.i.f.6.6.6.6.>.5   # :     7       7     7     l 6.6.6.6.f.i.c.",
"c.F x.0.6.6.6.5.0   + 3     7       7     7     m 6.6.6.0.x.F c.",
"c.c.s.g.8.6.6.6.p     7     6 .     7     7     I 6.6.8.g.s.c.c.",
"c.c.D k.p.6.6.6.N . + 9 . + ; ; X + 9   + 9 . @ ~ 6.6.p.k.D c.c.",
"c.c.c.e.z.q.6.6.*.i C V a B Z s d A A 4 A S 5 y -.6.q.z.e.c.c.c.",
"c.c.c.c.u.l.q.6.6.2.6.6.%.6.6.,.] +.o./  ...Q | 6.q.l.u.c.c.c.c.",
"c.c.c.c.c.u.z.p.8.6.6.6.6.6.6.6.6.6.6.6.6.6.6.8.p.z.u.c.c.c.c.c.",
"c.c.c.c.c.c.e.k.g.0.6.6.6.6.6.6.6.6.6.6.6.6.0.g.k.e.c.c.c.c.c.c.",
"c.c.c.c.c.c.c.D s.x.f.w.9.7.6.6.6.6.7.9.w.f.x.s.D c.c.c.c.c.c.c.",
"c.c.c.c.c.c.c.c.c.F i.j.x.h.d.a.a.d.h.x.j.i.F c.c.c.c.c.c.c.c.c.",
"c.c.c.c.c.c.c.c.c.c.c.c.G r.t.y.y.t.r.G c.c.c.c.c.c.c.c.c.c.c.c."
};
