/* XPM */
static char *result[] = {
/* columns rows colors chars-per-pixel */
"64 64 194 2 ",
"   c #000000",
".  c #090600",
"X  c #0C0903",
"o  c #130D02",
"O  c #171103",
"+  c #1A1203",
"@  c #1E1A00",
"#  c #1C190B",
"$  c #261B06",
"%  c #2A1F06",
"&  c #251B09",
"*  c #2B2204",
"=  c #28220B",
"-  c #332705",
";  c #322B02",
":  c #322409",
">  c #312A0C",
",  c #3D2B09",
"<  c #3C3501",
"1  c #37320F",
"2  c #363212",
"3  c #432C07",
"4  c #443405",
"5  c #493507",
"6  c #433A02",
"7  c #40320A",
"8  c #4B360B",
"9  c #48380A",
"0  c #543D0B",
"q  c #463C16",
"w  c #4D4301",
"e  c #55400B",
"r  c #5A430A",
"t  c #594908",
"y  c #5F5401",
"u  c #4C4214",
"i  c #5C4E14",
"p  c #654A0B",
"a  c #694D0E",
"s  c #644B08",
"d  c #675B02",
"f  c #6B530B",
"g  c #695606",
"h  c #72560F",
"j  c #775809",
"k  c #6A5912",
"l  c #695816",
"z  c #725710",
"x  c #735A13",
"c  c #7D5D10",
"v  c #736006",
"b  c #7B6C02",
"n  c #7E600F",
"m  c #7E7002",
"M  c #7C6314",
"N  c #7F691A",
"B  c #70671D",
"V  c #776821",
"C  c #886B09",
"Z  c #926D0E",
"A  c #897902",
"S  c #9C7A09",
"D  c #967A0A",
"F  c #8A6712",
"G  c #826B1B",
"H  c #8D6F1D",
"J  c #88721C",
"K  c #957216",
"L  c #9A7413",
"P  c #9F7B10",
"I  c #947B1B",
"U  c #9C7D1C",
"Y  c #95771B",
"T  c #A27E0A",
"R  c #A17913",
"E  c #8E7720",
"W  c #978502",
"Q  c #9A8802",
"!  c #9D830B",
"~  c #AB870A",
"^  c #A7860E",
"/  c #B88F0F",
"(  c #B38C08",
")  c #A79302",
"_  c #B39D03",
"`  c #B7920D",
"'  c #AE8710",
"]  c #A9861F",
"[  c #B08414",
"{  c #BC8C16",
"}  c #BA8A18",
"|  c #B18813",
" . c #AC901E",
".. c #BB9211",
"X. c #B8981D",
"o. c #A38622",
"O. c #A98922",
"+. c #A68B27",
"@. c #A39422",
"#. c #AA9C2E",
"$. c #AB9128",
"%. c #BB9D26",
"&. c #B49B2B",
"*. c #B99928",
"=. c #B4972B",
"-. c #B39E33",
";. c #BFA32F",
":. c #BEAC2A",
">. c #B4A229",
",. c #C39B0D",
"<. c #CF9C0F",
"1. c #D19D0F",
"2. c #C49313",
"3. c #C99612",
"4. c #C69A13",
"5. c #CC9B11",
"6. c #C3AB03",
"7. c #CBA10C",
"8. c #C1A00C",
"9. c #D4A30E",
"0. c #DBA50B",
"q. c #D4AB0D",
"w. c #DDAA0A",
"e. c #CBB203",
"r. c #D9BC03",
"t. c #DCB30C",
"y. c #D9B80A",
"u. c #CDA412",
"i. c #D0A110",
"p. c #D1AA10",
"a. c #E3AF07",
"s. c #E1A908",
"d. c #E5B307",
"f. c #E7BA07",
"g. c #E9BC06",
"h. c #E2B309",
"j. c #E5BA08",
"k. c #C3A42D",
"l. c #C8AA2D",
"z. c #D7BF2B",
"x. c #C6AA33",
"c. c #C9AC32",
"v. c #C0A631",
"b. c #CAB439",
"n. c #D5B737",
"m. c #D6B835",
"M. c #D3BB3D",
"N. c #D9BC39",
"B. c #D2B739",
"V. c #E3C404",
"C. c #ECC305",
"Z. c #ECC905",
"A. c #F2CF04",
"S. c #F3D203",
"D. c #F7DB02",
"F. c #FBE401",
"G. c #FEEC00",
"H. c #DACA39",
"J. c #C3AE42",
"K. c #C8AF42",
"L. c #CFB946",
"P. c #CBB848",
"I. c #D2BB43",
"U. c #CDBF52",
"Y. c #CFC148",
"T. c #D1C344",
"R. c #DAC143",
"E. c #D6C944",
"W. c #D6CA4E",
"Q. c #D3C553",
"!. c #D6CA50",
"~. c #DDCF5B",
"^. c #E3CA45",
"/. c #E5CE4A",
"(. c #E0C644",
"). c #E6D04A",
"_. c #EBD44F",
"`. c #E2D454",
"'. c #ECD451",
"]. c #EADB54",
"[. c #E0D55A",
"{. c #EADB5B",
"}. c #EFE25D",
"|. c #F0E35E",
" X c #DFD56B",
".X c #E3DB6D",
"XX c #E9DD62",
"oX c #EEE265",
"OX c #F1E661",
"+X c #F6EA6B",
"@X c #EBE473",
"#X c #F6EC73",
"$X c #FDF782",
"%X c None",
/* pixels */
"%X%X%X%X%X%X%X%X%X%X%X%X%X%X%X%X%X%X%X%X%X%X%X%X%X%X%X%X%X%X%X%X%X%X%X%X%X%X%X%X%X%X%X%X%X%X%X%X%X%X%X%X%X%X%X%X%X%X%X%X%X%X%X%X",
"%X%X%X%X%X%X%X%X%X%X%X%X%X%X%X%X%X%X%X%X%X%X%X%X%X%X%X%X%X%X%X%X%X%X%X%X%X%X%X%X%X%X%X%X%X%X%X%X%X%X%X%X%X%X%X%X%X%X%X%X%X%X%X%X",
"%X%X%X%X%X%X%X%X%X%X%X%X%X%X%X%X%X%X%X%X%X%X%X%X%XG.D.A.C.g.f.d.d.d.f.g.C.C.Z.%X%X%X%X%X%X%X%X%X%X%X%X%X%X%X%X%X%X%X%X%X%X%X%X%X",
"%X%X%X%X%X%X%X%X%X%X%X%X%X%X%X%X%X%X%X%X%X%XF.S.g.s.s.s.s.s.s.s.s.s.s.s.s.s.s.a.h.j.y.%X%X%X%X%X%X%X%X%X%X%X%X%X%X%X%X%X%X%X%X%X",
"%X%X%X%X%X%X%X%X%X%X%X%X%X%X%X%X%X%X%XG.D.C.s.s.s.s.0.<.3.2.2.{ { 2.2.3.5.9.0.s.s.s.s.w.y.%X%X%X%X%X%X%X%X%X%X%X%X%X%X%X%X%X%X%X",
"%X%X%X%X%X%X%X%X%X%X%X%X%X%X%X%X%XG.D.f.s.s.0.<.2.L h 8 * o           + : 0 F [ 5.0.s.s.s.w.y.%X%X%X%X%X%X%X%X%X%X%X%X%X%X%X%X%X",
"%X%X%X%X%X%X%X%X%X%X%X%X%X%X%X%XF.g.s.s.0.2.L 0 +                               * f | i.s.s.s.w.t.%X%X%X%X%X%X%X%X%X%X%X%X%X%X%X",
"%X%X%X%X%X%X%X%X%X%X%X%X%X%XG.S.s.s.0.2.c %                                           7 P 1.s.s.w.q.%X%X%X%X%X%X%X%X%X%X%X%X%X%X",
"%X%X%X%X%X%X%X%X%X%X%X%X%XG.C.s.0.3.F $                                                   4 ' 9.s.s.w.p.%X%X%X%X%X%X%X%X%X%X%X%X",
"%X%X%X%X%X%X%X%X%X%X%X%XF.d.s.9.[ 7                                                         . f 5.w.a.w.p.%X%X%X%X%X%X%X%X%X%X%X",
"%X%X%X%X%X%X%X%X%X%X%XF.a.s.1.F o                                                               - / 0.s.w.p.%X%X%X%X%X%X%X%X%X%X",
"%X%X%X%X%X%X%X%X%X%XF.a.s.3.a                                                                     o ^ 0.s.w.p.%X%X%X%X%X%X%X%X%X",
"%X%X%X%X%X%X%X%X%XF.a.s.3.r                                                                         . D 0.s.w.p.%X%X%X%X%X%X%X%X",
"%X%X%X%X%X%X%X%XG.d.s.5.r                                                                               S w.s.0.p.%X%X%X%X%X%X%X",
"%X%X%X%X%X%X%XG.g.s.1.a                                                                                 X ~ w.s.p.%X%X%X%X%X%X%X",
"%X%X%X%X%X%X%XS.s.0.F                                                                                     + 2.w.s.p.%X%X%X%X%X%X",
"%X%X%X%X%X%XF.a.w.[ o                                                                                       4 q.s.0.u.%X%X%X%X%X",
"%X%X%X%X%XG.g.s.5.,                                                                                           C w.s.9.%X%X%X%X%X",
"%X%X%X%X%XD.s.0.F                                                                                             o 7.s.w.u.%X%X%X%X",
"%X%X%X%XG.d.s.2.$                                                                                               s w.s.9.%X%X%X%X",
"%X%X%X%XD.s.0.c                                                                                                 . 8.s.s.5.%X%X%X",
"%X%X%X%XC.s.3.%                                                                                                   h w.s.u.%X%X%X",
"%X%X%XF.s.w.K                                                                                                     + q.s.0.%X%X%X",
"%X%X%XA.s.1.0                                                                                                       ! w.s.5.%X%X",
"%X%X%Xg.s.2.+                                               O + + O o                       X O + + O               t w.a.5.%X%X",
"%X%XG.a.s.R                                       .       o a K K K 3                       3 K K K a o             @ t.s.0.%X%X",
"%X%XS.s.0.h     % z z z f z h h z z z z f r :   % r x z z x o.c.l.l.c z z z e & O 8 f z x z F x.l.l.Y x z x p ,       8.s.0.%X%X",
"%X%XZ.s.9.8     e I./././.).).)././././././.$.f *./././.).).E.)./././././././.O.U (.).)././././././././././.).;.i     D s.s.4.%X",
"%X%Xg.s.5.*     k {.+X+X+X+X+X+X+X+X+X+X+X+X~.X.oX+X+X+X+X+X+X+X+X+X+X+X+X+X+XQ.R.+X+X+X+X+X+X+X+X+X+X+X+X+X+X+XI     v a.s.5.%X",
"%X%Xf.s.5.O     G +X$X$X XW.Q.!.Q.Q.Q.@X$X#X XH.#X$X$X$X$X$X$X$X$X$X$X$X$X$X$X X].$X$X$X$X$X$X$X$X$X$X$X$X$X$X$X#.    t h.s.5.%X",
"%X%Xd.s.2.      V W.W.W.E.B 1 1 1 2 B T.!.!.Y.H.W.W.W.!.!.W.W.W.W.W.W.W.W.!.!.Y.E.W.W.W.!.W.W.W.W.!.Q.Q.W.W.!.!.#.    6 h.s.1.%X",
"%X%Xa.s.2.      u :.l.:.:.@.@.@.@. .@.:.l.@.u i k.l.:.:.2 # # # # # # # # # # 2 >.:.:.l.V # # # # # # & # # # # X     < j.s.1.%X",
"%X%Xa.s.2.      k `.OXOXOXOXOXOXOXOXOX|.|.].%.Y ].OXoXb.7                     > M.OXOX[.M                             < g.s.1.%X",
"%X%Xs.s.2.      r B.^.(.^.(./.(.^.^.^.^././.x.Z N.E./.&.,                     % *.^.^.I.f                             < g.s.5.%X",
"%X%Xa.s.5..     5 k.m.m.*.H H H H H K b.m.m.;.j l.n.m.O.8 & & $ $ $ $ $ $ $ $ , O.m.n.c.p $ $ $ $ $ $ $ $ $ $ & O     w g.s.5.%X",
"%X%Xt.s.u.+     4 l.N.N.x.*.*.*.*.*.>.N.N.N.;.c c.N.N.B.%.*.*.*.*.*.*.*.*.*.*.o.O.N.N.N.;.*.*.*.*.*.*.*.*.*.*.=.a     d f.s.5.%X",
"%X%Xt.s.9.-     t I.'.'.'.'.'.'.'.'.'.'.'.'.J.L I._.'._.'.'.'.'.'.'.'.'.'.'.'.K.*.'.'.'.'.'.'._.'.'.'.'.'.'.'.'.G     A d.s.2.%X",
"%X%Xt.s.9.r     k `.oXoXoXoXoXoXOXOXoXXXXXQ.+.i $.U.XXoXoXoXOXOXOX+XoXoXOXXXoXU. .J.[.oXoXoXOXOXOXOXoXOXoXoXoXoXH     _ a.s.2.%X",
"%X%Xt.s.0.C     q G G G N G G N N G G N G N >   = x G N N G &.OXOX{.Y N G G G G q i G G N N I {.OXOX-.G G N G N l     V.s.0.%X%X",
"%X%X%Xs.s...                                              o O.I.I.L.M                       z L.L.L.o.&             ; C.s.1.%X%X",
"%X%X%Xw.s.i.*                                               8 0 0 0 ,                       : 0 0 0 0 X             b d.s.3.%X%X",
"%X%X%Xt.s.0.h                                                                                                       e.a.s.{ %X%X",
"%X%X%Xt.s.s.`                                                                                                     ; Z.s.1.%X%X%X",
"%X%X%X%Xw.a.q.9                                                                                                   Q d.s.2.%X%X%X",
"%X%X%X%Xq.a.w.^                                                                                                 @ Z.s.0.} %X%X%X",
"%X%X%X%X%Xw.s.9.4                                                                                               W d.s.2.%X%X%X%X",
"%X%X%X%X%Xq.s.s.` .                                                                                           ; Z.s.0.} %X%X%X%X",
"%X%X%X%X%X%Xq.s.q.j                                                                                           6.a.s.2.%X%X%X%X%X",
"%X%X%X%X%X%Xp.s.s.q.-                                                                                       b g.s.1.%X%X%X%X%X%X",
"%X%X%X%X%X%X%Xp.s.s.,.O                                                                                   6 Z.s.0.{ %X%X%X%X%X%X",
"%X%X%X%X%X%X%X%X9.s.s.~ X                                                                               * V.s.s.2.%X%X%X%X%X%X%X",
"%X%X%X%X%X%X%X%Xi.q.s.w.S                                                                             $ r.a.s.2.%X%X%X%X%X%X%X%X",
"%X%X%X%X%X%X%X%X%Xu.0.s.a.T .                                                                       * r.a.s.5.%X%X%X%X%X%X%X%X%X",
"%X%X%X%X%X%X%X%X%X%Xu.0.s.w.( +                                                                   6 V.a.s.3.} %X%X%X%X%X%X%X%X%X",
"%X%X%X%X%X%X%X%X%X%X%Xu.0.s.a.7.4                                                               b Z.s.s.<.} %X%X%X%X%X%X%X%X%X%X",
"%X%X%X%X%X%X%X%X%X%X%X%Xu.9.s.s.h.C o                                                       ; 6.C.s.w.3.%X%X%X%X%X%X%X%X%X%X%X%X",
"%X%X%X%X%X%X%X%X%X%X%X%X%X4.i.s.s.w.q.g .                                               $ W Z.d.s.0.2.%X%X%X%X%X%X%X%X%X%X%X%X%X",
"%X%X%X%X%X%X%X%X%X%X%X%X%X%X%X5.0.a.s.h.e.j +                                       ; Q Z.d.s.0.1.} %X%X%X%X%X%X%X%X%X%X%X%X%X%X",
"%X%X%X%X%X%X%X%X%X%X%X%X%X%X%X%X4.5.w.s.s.d.Z._ d @                           ; b e.Z.d.s.s.0.2.%X%X%X%X%X%X%X%X%X%X%X%X%X%X%X%X",
"%X%X%X%X%X%X%X%X%X%X%X%X%X%X%X%X%X%X2.1.s.s.0.a.f.Z.r.) b d 6 6 < < w d A _ V.Z.f.s.s.s.0.2.{ %X%X%X%X%X%X%X%X%X%X%X%X%X%X%X%X%X",
"%X%X%X%X%X%X%X%X%X%X%X%X%X%X%X%X%X%X%X%X2.5.0.s.s.s.s.s.d.g.g.C.C.C.g.f.d.a.s.s.s.w.1.2.} %X%X%X%X%X%X%X%X%X%X%X%X%X%X%X%X%X%X%X",
"%X%X%X%X%X%X%X%X%X%X%X%X%X%X%X%X%X%X%X%X%X%X%X2.5.0.0.s.s.s.s.s.s.s.s.s.a.s.0.1.3.{ %X%X%X%X%X%X%X%X%X%X%X%X%X%X%X%X%X%X%X%X%X%X",
"%X%X%X%X%X%X%X%X%X%X%X%X%X%X%X%X%X%X%X%X%X%X%X%X%X%X%X2.3.3.5.1.1.3.5.3.2.2.%X%X%X%X%X%X%X%X%X%X%X%X%X%X%X%X%X%X%X%X%X%X%X%X%X%X",
"%X%X%X%X%X%X%X%X%X%X%X%X%X%X%X%X%X%X%X%X%X%X%X%X%X%X%X%X%X%X%X%X%X%X%X%X%X%X%X%X%X%X%X%X%X%X%X%X%X%X%X%X%X%X%X%X%X%X%X%X%X%X%X%X"
};
