/* XPM */
static char *d563fd088d31431792fc0b119fd25b8875xnjejIzPrnQBR0[] = {
/* columns rows colors chars-per-pixel */
"16 16 68 1 ",
"  c None",
". c black",
"X c #030100",
"o c #020202",
"O c #050402",
"+ c #040404",
"@ c #0B0600",
"# c #0E0700",
"$ c gray3",
"% c #090909",
"& c gray4",
"* c #0B0B0B",
"= c gray5",
"- c #0F0E0C",
"; c #160B00",
": c #140F0A",
"> c #1B130A",
", c #171512",
"< c #1D1B19",
"1 c #1E1E1E",
"2 c #2F1700",
"3 c #342A1F",
"4 c #222222",
"5 c #242321",
"6 c gray18",
"7 c #442200",
"8 c #5D340C",
"9 c #6A3500",
"0 c #62390F",
"q c #7C3E00",
"w c #904800",
"e c #A45200",
"r c #AE5700",
"t c #A5590D",
"y c #AD5D0D",
"u c #B65D05",
"i c #BA630D",
"p c #CB6603",
"a c #D56A00",
"s c #D36C07",
"d c #DB7209",
"f c #D9720B",
"g c #E47200",
"h c #EA7705",
"j c #E87706",
"k c #EA7706",
"l c #EA7A0B",
"z c #F07903",
"x c #F67B01",
"c c #F77C02",
"v c #F87C00",
"b c #FA7C00",
"n c #FA7D01",
"m c #FB7E01",
"M c #FC7D00",
"N c #FC7E01",
"B c #FF7F00",
"V c #FE7F02",
"C c #FF8001",
"Z c #FF840A",
"A c #FFA751",
"S c #FFBB78",
"D c #AAAAAA",
"F c #B4B4B4",
"G c #BDBCBB",
"H c #D4C4B5",
"J c #F0D4B8",
"K c #CCCAC8",
/* pixels */
"     FKHHKF     ",
"   DJAZvBZAJD   ",
"  GSCBBweBBBSG  ",
" DSBBBa#;gBBBSD ",
" JCBBB2..7BBBCJ ",
"FABBBv...#BBBBAF",
"KZBBBB9..qBBBBZK",
"HBBBhpsruxccBBBH",
"HBBB8&+*.=O,dBBH",
"KZBB>&.*.=&.yCZK",
"FABv&&.&.&&.tBAF",
" JBB:&.*.&&.iCJ ",
" DSB03<4416=hSD ",
"  GSBBvBzklfSG  ",
"   DJAZBCZAJD   ",
"     FKHHKF     "
};
